<svg xmlns="http://www.w3.org/2000/svg" viewBox="0 0 24 24" fill="white">
  <!-- TikTok music note 'd' shape -->
  <path d="M17 2 L17 12.5 C17 15.5 14.5 18 11.5 18 C8.5 18 6 15.5 6 12.5 C6 9.5 8.5 7 11.5 7 C12.4 7 13.2 7.2 14 7.6 L14 2 L17 2 Z M14 10.2 C13.3 9.7 12.4 9.5 11.5 9.5 C9.8 9.5 8.5 10.8 8.5 12.5 C8.5 14.2 9.8 15.5 11.5 15.5 C13.2 15.5 14.5 14.2 14.5 12.5 L14.5 5 L14.8 5 C15.4 6.4 16.6 7 18 7.2 L18 5 L17 5 L17 2"/>
  <!-- Top bar accent -->
  <path d="M17 2 C18 3.5 19.5 4.5 21 5 L21 7.5 C19.2 7.2 17.6 6.3 16.5 5"/>
</svg>
